name Visual3d_SIMM_grf.mot
datacolumns 19
datarows 46
range 0.620000 1.070000
endheader
time	ground_force_vx	ground_force_vy	ground_force_vz	ground_force_px	ground_force_py	ground_force_pz	l_ground_force_vx	l_ground_force_vy	l_ground_force_vz	l_ground_force_px	l_ground_force_py	l_ground_force_pz	ground_torque_x	ground_torque_y	ground_torque_z	l_ground_torque_x	l_ground_torque_y	l_ground_torque_z
0.620000	-29.368937	198.796585	4.770998	0.119453	-0.004288	0.265185	38.466835	142.985580	2.565217	-0.322750	0.000858	0.211567	0.002399	0.576748	-0.010745	-0.002456	1.985849	-0.004122
0.630000	-38.078117	229.489166	0.439013	0.125803	-0.004489	0.266986	30.708822	108.834091	0.800845	-0.321790	0.000056	0.211710	0.002982	0.716843	-0.013355	-0.002080	1.681574	-0.003490
0.640000	-45.810329	259.517456	-3.706568	0.132670	-0.004364	0.268453	22.556890	77.473343	-0.434950	-0.321481	-0.000456	0.212819	0.003254	0.782405	-0.014577	-0.001717	1.388472	-0.002882
0.650000	-51.796486	287.087311	-7.307896	0.139781	-0.004029	0.269615	14.915914	51.083046	-1.106462	-0.322024	-0.000684	0.215102	0.003233	0.777141	-0.014479	-0.001402	1.133502	-0.002353
0.660000	-55.784725	310.306824	-10.335246	0.146971	-0.003599	0.270532	8.487703	30.769194	-1.317345	-0.324203	-0.000636	0.218912	0.002997	0.720511	-0.013424	-0.001158	0.936111	-0.001943
0.670000	-57.803097	327.699524	-12.678038	0.154152	-0.003160	0.271243	0.000000	0.000000	0.000000	0.000000	0.000000	0.000000	0.002591	0.622977	-0.011606	0.000000	0.000000	0.000000
0.680000	-58.063950	338.588226	-14.239474	0.161310	-0.002756	0.271777	0.000000	0.000000	0.000000	0.000000	0.000000	0.000000	0.002069	0.497442	-0.009268	0.000000	0.000000	0.000000
0.690000	-56.910820	343.099731	-15.106956	0.168489	-0.002401	0.272176	0.000000	0.000000	0.000000	0.000000	0.000000	0.000000	0.001502	0.361031	-0.006726	0.000000	0.000000	0.000000
0.700000	-54.710201	341.931610	-15.467722	0.175763	-0.002088	0.272475	0.000000	0.000000	0.000000	0.000000	0.000000	0.000000	0.000924	0.222209	-0.004140	0.000000	0.000000	0.000000
0.710000	-51.792717	336.043640	-15.563063	0.183191	-0.001804	0.272701	0.000000	0.000000	0.000000	0.000000	0.000000	0.000000	0.000352	0.084585	-0.001576	0.000000	0.000000	0.000000
0.720000	-48.427361	326.483429	-15.563232	0.190768	-0.001533	0.272878	0.000000	0.000000	0.000000	0.000000	0.000000	0.000000	-0.000209	-0.050147	0.000934	0.000000	0.000000	0.000000
0.730000	-44.795048	314.356720	-15.526594	0.198395	-0.001263	0.273009	0.000000	0.000000	0.000000	0.000000	0.000000	0.000000	-0.000746	-0.179444	0.003343	0.000000	0.000000	0.000000
0.740000	-40.998127	300.768219	-15.448259	0.205881	-0.000990	0.273090	0.000000	0.000000	0.000000	0.000000	0.000000	0.000000	-0.001237	-0.297338	0.005540	0.000000	0.000000	0.000000
0.750000	-37.092457	286.729706	-15.294540	0.212955	-0.000715	0.273117	0.000000	0.000000	0.000000	0.000000	0.000000	0.000000	-0.001643	-0.394891	0.007357	0.000000	0.000000	0.000000
0.760000	-33.117054	273.069641	-15.032317	0.219321	-0.000439	0.273089	0.000000	0.000000	0.000000	0.000000	0.000000	0.000000	-0.001926	-0.462996	0.008626	0.000000	0.000000	0.000000
0.770000	-29.099653	260.353760	-14.639065	0.224720	-0.000170	0.273007	0.000000	0.000000	0.000000	0.000000	0.000000	0.000000	-0.002058	-0.494713	0.009217	0.000000	0.000000	0.000000
0.780000	-25.076374	248.859467	-14.107715	0.229010	0.000085	0.272879	0.000000	0.000000	0.000000	0.000000	0.000000	0.000000	-0.002025	-0.486905	0.009071	0.000000	0.000000	0.000000
0.790000	-21.122152	238.635956	-13.457957	0.232202	0.000316	0.272715	0.000000	0.000000	0.000000	0.000000	0.000000	0.000000	-0.001836	-0.441419	0.008224	0.000000	0.000000	0.000000
0.800000	-17.358538	229.627457	-12.745537	0.234449	0.000516	0.272536	0.000000	0.000000	0.000000	0.000000	0.000000	0.000000	-0.001521	-0.365695	0.006813	0.000000	0.000000	0.000000
0.810000	-13.889836	221.768768	-12.040351	0.235968	0.000681	0.272356	0.000000	0.000000	0.000000	0.000000	0.000000	0.000000	-0.001129	-0.271491	0.005058	0.000000	0.000000	0.000000
0.820000	-10.755085	215.026749	-11.398323	0.236977	0.000812	0.272175	0.000000	0.000000	0.000000	0.000000	0.000000	0.000000	-0.000708	-0.170204	0.003171	0.000000	0.000000	0.000000
0.830000	-7.934181	209.427979	-10.841616	0.237660	0.000912	0.271964	0.000000	0.000000	0.000000	0.000000	0.000000	0.000000	-0.000291	-0.069938	0.001303	0.000000	0.000000	0.000000
0.840000	-5.369586	205.070618	-10.355951	0.238157	0.000988	0.271675	0.000000	0.000000	0.000000	0.000000	0.000000	0.000000	0.000107	0.025831	-0.000481	0.000000	0.000000	0.000000
0.850000	-3.006448	202.112961	-9.925847	0.238576	0.001049	0.271268	0.000000	0.000000	0.000000	0.000000	0.000000	0.000000	0.000488	0.117279	-0.002185	0.000000	0.000000	0.000000
0.860000	-0.783109	200.728241	-9.527600	0.238987	0.001104	0.270723	0.000000	0.000000	0.000000	0.000000	0.000000	0.000000	0.000860	0.206836	-0.003854	0.000000	0.000000	0.000000
0.870000	1.379737	201.063629	-9.137771	0.239431	0.001161	0.270048	0.000000	0.000000	0.000000	0.000000	0.000000	0.000000	0.001237	0.297481	-0.005542	0.000000	0.000000	0.000000
0.880000	3.570563	203.206116	-8.745289	0.239921	0.001225	0.269282	0.000000	0.000000	0.000000	0.000000	0.000000	0.000000	0.001629	0.391723	-0.007298	0.000000	0.000000	0.000000
0.890000	5.886676	207.175171	-8.357038	0.240463	0.001288	0.268483	0.000000	0.000000	0.000000	0.000000	0.000000	0.000000	0.002040	0.490351	-0.009136	0.000000	0.000000	0.000000
0.900000	8.423336	212.914337	-7.998722	0.241051	0.001339	0.267704	0.000000	0.000000	0.000000	0.000000	0.000000	0.000000	0.002461	0.591741	-0.011025	0.000000	0.000000	0.000000
0.910000	11.269401	220.286118	-7.713533	0.241668	0.001370	0.266982	0.000000	0.000000	0.000000	0.000000	0.000000	0.000000	0.002878	0.691858	-0.012890	0.000000	0.000000	0.000000
0.920000	14.514405	229.064560	-7.558057	0.242299	0.001384	0.266326	0.000000	0.000000	0.000000	0.000000	0.000000	0.000000	0.003262	0.784277	-0.014612	0.000000	0.000000	0.000000
0.930000	18.249352	238.922928	-7.594352	0.242939	0.001381	0.265744	0.000000	0.000000	0.000000	0.000000	0.000000	0.000000	0.003582	0.861065	-0.016042	0.000000	0.000000	0.000000
0.940000	22.542366	249.455811	-7.882314	0.243585	0.001366	0.265247	0.000000	0.000000	0.000000	0.000000	0.000000	0.000000	0.003802	0.914061	-0.017030	0.000000	0.000000	0.000000
0.950000	27.415281	260.200439	-8.466038	0.244246	0.001338	0.264845	0.000000	0.000000	0.000000	0.000000	0.000000	0.000000	0.003894	0.936171	-0.017442	0.000000	0.000000	0.000000
0.960000	32.834301	270.614136	-9.359674	0.244936	0.001302	0.264524	0.000000	0.000000	0.000000	0.000000	0.000000	0.000000	0.003837	0.922335	-0.017184	0.000000	0.000000	0.000000
0.970000	38.699245	280.010803	-10.529497	0.245670	0.001257	0.264259	0.000000	0.000000	0.000000	0.000000	0.000000	0.000000	0.003627	0.871870	-0.016244	0.000000	0.000000	0.000000
0.980000	44.832069	287.520905	-11.876977	0.246458	0.001205	0.264024	0.000000	0.000000	0.000000	0.000000	0.000000	0.000000	0.003283	0.789380	-0.014707	0.000000	0.000000	0.000000
0.990000	50.964928	292.102386	-13.231926	0.247308	0.001135	0.263797	0.000000	0.000000	0.000000	0.000000	0.000000	0.000000	0.002852	0.685595	-0.012773	0.000000	0.000000	0.000000
1.000000	56.724159	292.620331	-14.369545	0.248218	0.001038	0.263567	0.000000	0.000000	0.000000	0.000000	0.000000	0.000000	0.002395	0.575754	-0.010727	0.000000	0.000000	0.000000
1.010000	61.632690	287.961578	-15.045591	0.249174	0.000909	0.263317	0.000000	0.000000	0.000000	0.000000	0.000000	0.000000	0.001980	0.475999	-0.008868	0.000000	0.000000	0.000000
1.020000	65.131332	277.195282	-15.038103	0.250139	0.000765	0.263009	0.000000	0.000000	0.000000	0.000000	0.000000	0.000000	0.001660	0.398967	-0.007433	0.000000	0.000000	0.000000
1.030000	66.631805	259.760742	-14.198923	0.251043	0.000630	0.262579	0.000000	0.000000	0.000000	0.000000	0.000000	0.000000	0.001455	0.349796	-0.006517	0.000000	0.000000	0.000000
1.040000	65.603714	235.660248	-12.509230	0.251749	0.000530	0.261930	0.000000	0.000000	0.000000	0.000000	0.000000	0.000000	0.001351	0.324769	-0.006051	0.000000	0.000000	0.000000
1.050000	61.703148	205.606003	-10.113509	0.252044	0.000486	0.260947	0.000000	0.000000	0.000000	0.000000	0.000000	0.000000	0.001303	0.313145	-0.005834	0.000000	0.000000	0.000000
1.060000	54.943314	171.091858	-7.317459	0.251601	0.000521	0.259514	0.000000	0.000000	0.000000	0.000000	0.000000	0.000000	0.001250	0.300549	-0.005599	0.000000	0.000000	0.000000
1.070000	45.829258	134.464493	-4.519779	0.250069	0.000662	0.257541	0.000000	0.000000	0.000000	0.000000	0.000000	0.000000	0.001149	0.276123	-0.005144	0.000000	0.000000	0.000000
